Coordinates
version=1
nRows=27
nColumns=12
inDegrees=yes

Units are S.I. units (second, meters, Newtons, ...)
Angles are in degrees

endheader
time	SC_y	SC_z	SC_x	AC_y	AC_z	AC_x	GH_y	GH_z	GH_yy	EL_x	PS_y
       0.0              -48.15          11.34          53.85          43.38         -19.67         -19.67          130.4         -5.711         -32.51          26.31          40.06
   0.04873              -48.15          11.34          53.85          43.38         -19.67         -19.66          130.4         -5.709          -32.5          26.32          40.06
   0.09747              -48.15          11.34          53.84          43.38         -19.67         -19.66          130.4         -5.706         -32.49          26.34          40.05
    0.1462              -48.14          11.35          53.84          43.38         -19.67         -19.66          130.3         -5.703         -32.48          26.35          40.05
    0.1949              -48.14          11.35          53.84          43.38         -19.67         -19.66          130.3         -5.699         -32.46          26.37          40.04
    0.2437              -48.13          11.35          53.84          43.38         -19.67         -19.65          130.2         -5.696         -32.45          26.38          40.03
    0.2924              -48.13          11.36          53.84          43.38         -19.67         -19.65          130.2         -5.692         -32.43           26.4          40.03
    0.3411              -48.13          11.36          53.84          43.38         -19.67         -19.65          130.1         -5.688         -32.42          26.42          40.02
    0.3899              -48.12          11.37          53.84          43.38         -19.67         -19.65          130.1         -5.684          -32.4          26.44          40.01
    0.4386              -48.11          11.37          53.84          43.38         -19.67         -19.64          130.0         -5.679         -32.38          26.46           40.0
    0.4873              -48.11          11.38          53.83          43.39         -19.67         -19.64          129.9         -5.674         -32.36          26.48           40.0
    0.5361               -48.1          11.39          53.83          43.39         -19.67         -19.64          129.9         -5.669         -32.34          26.51          39.99
    0.5848               -48.1          11.39          53.83          43.39         -19.67         -19.63          129.8         -5.663         -32.31          26.53          39.98
    0.6335              -48.09           11.4          53.83          43.39         -19.67         -19.63          129.7         -5.657         -32.29          26.56          39.97
    0.6823              -48.08          11.41          53.82          43.39         -19.67         -19.62          129.6          -5.65         -32.26          26.59          39.95
     0.731              -48.07          11.42          53.82          43.39         -19.67         -19.62          129.5         -5.643         -32.23          26.63          39.94
    0.7797              -48.06          11.42          53.82          43.39         -19.66         -19.61          129.4         -5.635         -32.19          26.66          39.93
    0.8285              -48.05          11.43          53.82          43.39         -19.66         -19.61          129.3         -5.626         -32.16           26.7          39.91
    0.8772              -48.04          11.45          53.81          43.39         -19.66          -19.6          129.2         -5.617         -32.12          26.75           39.9
    0.9259              -48.03          11.46          53.81          43.39         -19.66         -19.59          129.0         -5.607         -32.08          26.79          39.88
    0.9747              -48.02          11.47           53.8          43.39         -19.66         -19.58          128.9         -5.595         -32.03          26.85          39.86
     1.023               -48.0          11.49           53.8          43.39         -19.66         -19.58          128.7         -5.583         -31.98           26.9          39.84
     1.072              -47.99           11.5          53.79          43.39         -19.66         -19.57          128.5         -5.569         -31.92          26.97          39.81
     1.121              -47.97          11.52          53.79          43.39         -19.66         -19.55          128.3         -5.554         -31.85          27.04          39.78
      1.17              -47.95          11.54          53.78          43.39         -19.66         -19.54          128.1         -5.537         -31.78          27.12          39.75
     1.218              -47.93          11.56          53.78          43.39         -19.66         -19.53          127.8         -5.518          -31.7          27.21          39.72
     1.267              -47.91          11.58          53.77          43.39         -19.65         -19.51          127.5         -5.497         -31.62           27.3          39.68
